<mxfile host="app.diagrams.net" modified="2022-10-24T11:23:57.280Z" agent="5.0 (Windows NT 10.0; Win64; x64) AppleWebKit/537.36 (KHTML, like Gecko) Chrome/106.0.0.0 Safari/537.36" etag="orvFe1Ywg-zg_RXhR1O0" version="20.3.2" type="github" pages="2">
  <diagram id="6a731a19-8d31-9384-78a2-239565b7b9f0" name="ログイン処理フロー">
    <mxGraphModel dx="1093" dy="601" grid="1" gridSize="10" guides="1" tooltips="1" connect="1" arrows="1" fold="1" page="1" pageScale="1" pageWidth="1169" pageHeight="827" background="none" math="0" shadow="0">
      <root>
        <mxCell id="0" />
        <mxCell id="1" parent="0" />
        <mxCell id="2" value="start" style="shape=mxgraph.flowchart.terminator;strokeWidth=2;gradientColor=none;gradientDirection=north;fontStyle=0;html=1;" parent="1" vertex="1">
          <mxGeometry x="260" y="60" width="120" height="30" as="geometry" />
        </mxCell>
        <mxCell id="7" style="fontStyle=1;strokeColor=#003366;strokeWidth=1;html=1;entryX=0.5;entryY=0;entryDx=0;entryDy=0;" parent="1" source="2" target="F5rxBv4m4slnFYCEnTl8-55" edge="1">
          <mxGeometry relative="1" as="geometry">
            <mxPoint x="320" y="120" as="targetPoint" />
          </mxGeometry>
        </mxCell>
        <mxCell id="40" value="end" style="shape=mxgraph.flowchart.terminator;strokeWidth=2;gradientColor=none;gradientDirection=north;fontStyle=0;html=1;" parent="1" vertex="1">
          <mxGeometry x="260" y="990" width="120" height="30" as="geometry" />
        </mxCell>
        <mxCell id="F5rxBv4m4slnFYCEnTl8-55" value="１．ログイン画面" style="rounded=0;whiteSpace=wrap;html=1;align=left;verticalAlign=top;" vertex="1" parent="1">
          <mxGeometry x="240" y="120" width="160" height="120" as="geometry" />
        </mxCell>
        <mxCell id="F5rxBv4m4slnFYCEnTl8-63" value="" style="edgeStyle=orthogonalEdgeStyle;rounded=0;orthogonalLoop=1;jettySize=auto;html=1;" edge="1" parent="1" source="F5rxBv4m4slnFYCEnTl8-59" target="F5rxBv4m4slnFYCEnTl8-62">
          <mxGeometry relative="1" as="geometry" />
        </mxCell>
        <mxCell id="F5rxBv4m4slnFYCEnTl8-59" value="Baiduログイン" style="rounded=1;whiteSpace=wrap;html=1;" vertex="1" parent="1">
          <mxGeometry x="260" y="180" width="120" height="40" as="geometry" />
        </mxCell>
        <mxCell id="F5rxBv4m4slnFYCEnTl8-65" value="YES" style="edgeStyle=orthogonalEdgeStyle;rounded=0;orthogonalLoop=1;jettySize=auto;html=1;exitX=1;exitY=0.5;exitDx=0;exitDy=0;entryX=0;entryY=0.5;entryDx=0;entryDy=0;" edge="1" parent="1" source="F5rxBv4m4slnFYCEnTl8-62" target="F5rxBv4m4slnFYCEnTl8-66">
          <mxGeometry relative="1" as="geometry">
            <mxPoint x="440" y="320" as="targetPoint" />
          </mxGeometry>
        </mxCell>
        <mxCell id="F5rxBv4m4slnFYCEnTl8-62" value="該当設備&lt;br&gt;Baiduから&lt;br&gt;初回認証" style="rhombus;whiteSpace=wrap;html=1;rounded=1;" vertex="1" parent="1">
          <mxGeometry x="270" y="280" width="100" height="80" as="geometry" />
        </mxCell>
        <mxCell id="F5rxBv4m4slnFYCEnTl8-66" value="２．「QRコード」画面" style="rounded=0;whiteSpace=wrap;html=1;align=left;verticalAlign=top;" vertex="1" parent="1">
          <mxGeometry x="440" y="280" width="160" height="120" as="geometry" />
        </mxCell>
        <mxCell id="F5rxBv4m4slnFYCEnTl8-69" value="" style="edgeStyle=orthogonalEdgeStyle;rounded=0;orthogonalLoop=1;jettySize=auto;html=1;" edge="1" parent="1" source="F5rxBv4m4slnFYCEnTl8-67" target="F5rxBv4m4slnFYCEnTl8-68">
          <mxGeometry relative="1" as="geometry" />
        </mxCell>
        <mxCell id="F5rxBv4m4slnFYCEnTl8-67" value="スキン" style="rounded=1;whiteSpace=wrap;html=1;" vertex="1" parent="1">
          <mxGeometry x="460" y="340" width="120" height="40" as="geometry" />
        </mxCell>
        <mxCell id="F5rxBv4m4slnFYCEnTl8-74" value="" style="edgeStyle=orthogonalEdgeStyle;rounded=0;orthogonalLoop=1;jettySize=auto;html=1;" edge="1" parent="1" source="F5rxBv4m4slnFYCEnTl8-68" target="F5rxBv4m4slnFYCEnTl8-73">
          <mxGeometry relative="1" as="geometry" />
        </mxCell>
        <mxCell id="F5rxBv4m4slnFYCEnTl8-68" value="QRコート取得" style="rounded=1;whiteSpace=wrap;html=1;" vertex="1" parent="1">
          <mxGeometry x="260" y="440" width="120" height="40" as="geometry" />
        </mxCell>
        <mxCell id="F5rxBv4m4slnFYCEnTl8-70" value="" style="endArrow=classic;html=1;rounded=0;entryX=1;entryY=0.5;entryDx=0;entryDy=0;exitX=0.5;exitY=1;exitDx=0;exitDy=0;" edge="1" parent="1" source="F5rxBv4m4slnFYCEnTl8-67" target="F5rxBv4m4slnFYCEnTl8-68">
          <mxGeometry width="50" height="50" relative="1" as="geometry">
            <mxPoint x="590" y="340" as="sourcePoint" />
            <mxPoint x="640" y="290" as="targetPoint" />
            <Array as="points">
              <mxPoint x="520" y="460" />
            </Array>
          </mxGeometry>
        </mxCell>
        <mxCell id="F5rxBv4m4slnFYCEnTl8-78" value="" style="edgeStyle=orthogonalEdgeStyle;rounded=0;orthogonalLoop=1;jettySize=auto;html=1;" edge="1" parent="1" source="F5rxBv4m4slnFYCEnTl8-73" target="F5rxBv4m4slnFYCEnTl8-77">
          <mxGeometry relative="1" as="geometry" />
        </mxCell>
        <mxCell id="F5rxBv4m4slnFYCEnTl8-73" value="トーケンとユーザー情報取得" style="rounded=1;whiteSpace=wrap;html=1;" vertex="1" parent="1">
          <mxGeometry x="260" y="560" width="120" height="40" as="geometry" />
        </mxCell>
        <mxCell id="F5rxBv4m4slnFYCEnTl8-80" value="NO" style="edgeStyle=orthogonalEdgeStyle;rounded=0;orthogonalLoop=1;jettySize=auto;html=1;" edge="1" parent="1" source="F5rxBv4m4slnFYCEnTl8-77">
          <mxGeometry relative="1" as="geometry">
            <mxPoint x="440" y="700" as="targetPoint" />
          </mxGeometry>
        </mxCell>
        <mxCell id="F5rxBv4m4slnFYCEnTl8-92" value="YES" style="edgeStyle=orthogonalEdgeStyle;rounded=0;orthogonalLoop=1;jettySize=auto;html=1;" edge="1" parent="1" source="F5rxBv4m4slnFYCEnTl8-77">
          <mxGeometry relative="1" as="geometry">
            <mxPoint x="320.0526315789475" y="827" as="targetPoint" />
            <Array as="points">
              <mxPoint x="320" y="780" />
              <mxPoint x="320" y="780" />
            </Array>
          </mxGeometry>
        </mxCell>
        <mxCell id="F5rxBv4m4slnFYCEnTl8-77" value="ユーザー存在&lt;br&gt;確認" style="rhombus;whiteSpace=wrap;html=1;rounded=1;" vertex="1" parent="1">
          <mxGeometry x="270" y="660" width="100" height="80" as="geometry" />
        </mxCell>
        <mxCell id="F5rxBv4m4slnFYCEnTl8-81" value="３．ユーザー登録画面" style="rounded=0;whiteSpace=wrap;html=1;align=left;verticalAlign=top;" vertex="1" parent="1">
          <mxGeometry x="440" y="640" width="160" height="120" as="geometry" />
        </mxCell>
        <mxCell id="F5rxBv4m4slnFYCEnTl8-84" value="" style="edgeStyle=orthogonalEdgeStyle;rounded=0;orthogonalLoop=1;jettySize=auto;html=1;" edge="1" parent="1" source="F5rxBv4m4slnFYCEnTl8-82" target="F5rxBv4m4slnFYCEnTl8-83">
          <mxGeometry relative="1" as="geometry" />
        </mxCell>
        <mxCell id="F5rxBv4m4slnFYCEnTl8-82" value="ユーザー登録" style="rounded=1;whiteSpace=wrap;html=1;" vertex="1" parent="1">
          <mxGeometry x="460" y="700" width="120" height="40" as="geometry" />
        </mxCell>
        <mxCell id="F5rxBv4m4slnFYCEnTl8-86" value="NO" style="edgeStyle=orthogonalEdgeStyle;rounded=0;orthogonalLoop=1;jettySize=auto;html=1;entryX=0;entryY=0.5;entryDx=0;entryDy=0;" edge="1" parent="1" source="F5rxBv4m4slnFYCEnTl8-83" target="F5rxBv4m4slnFYCEnTl8-87">
          <mxGeometry relative="1" as="geometry">
            <mxPoint x="850" y="720" as="targetPoint" />
          </mxGeometry>
        </mxCell>
        <mxCell id="F5rxBv4m4slnFYCEnTl8-90" value="YES" style="edgeStyle=orthogonalEdgeStyle;rounded=0;orthogonalLoop=1;jettySize=auto;html=1;" edge="1" parent="1" source="F5rxBv4m4slnFYCEnTl8-83" target="F5rxBv4m4slnFYCEnTl8-89">
          <mxGeometry relative="1" as="geometry" />
        </mxCell>
        <mxCell id="F5rxBv4m4slnFYCEnTl8-83" value="認証ユーザー&lt;br&gt;確認" style="rhombus;whiteSpace=wrap;html=1;rounded=1;" vertex="1" parent="1">
          <mxGeometry x="680" y="680" width="100" height="80" as="geometry" />
        </mxCell>
        <mxCell id="F5rxBv4m4slnFYCEnTl8-98" value="" style="edgeStyle=orthogonalEdgeStyle;rounded=0;orthogonalLoop=1;jettySize=auto;html=1;entryX=1;entryY=0.5;entryDx=0;entryDy=0;entryPerimeter=0;exitX=0.5;exitY=1;exitDx=0;exitDy=0;" edge="1" parent="1" source="F5rxBv4m4slnFYCEnTl8-87" target="40">
          <mxGeometry relative="1" as="geometry">
            <mxPoint x="930" y="840.0000000000002" as="targetPoint" />
            <Array as="points">
              <mxPoint x="930" y="1005" />
            </Array>
          </mxGeometry>
        </mxCell>
        <mxCell id="F5rxBv4m4slnFYCEnTl8-87" value="４．SorryPage画面" style="rounded=0;whiteSpace=wrap;html=1;align=left;verticalAlign=top;" vertex="1" parent="1">
          <mxGeometry x="850" y="640" width="160" height="120" as="geometry" />
        </mxCell>
        <mxCell id="F5rxBv4m4slnFYCEnTl8-89" value="ユーザー情報&lt;br&gt;保存" style="whiteSpace=wrap;html=1;rounded=1;" vertex="1" parent="1">
          <mxGeometry x="670" y="827" width="120" height="60" as="geometry" />
        </mxCell>
        <mxCell id="F5rxBv4m4slnFYCEnTl8-96" value="" style="edgeStyle=orthogonalEdgeStyle;rounded=0;orthogonalLoop=1;jettySize=auto;html=1;" edge="1" parent="1" source="F5rxBv4m4slnFYCEnTl8-93" target="40">
          <mxGeometry relative="1" as="geometry" />
        </mxCell>
        <mxCell id="F5rxBv4m4slnFYCEnTl8-93" value="５．ホームページ画面" style="rounded=0;whiteSpace=wrap;html=1;align=left;verticalAlign=top;" vertex="1" parent="1">
          <mxGeometry x="240" y="827" width="160" height="120" as="geometry" />
        </mxCell>
        <mxCell id="F5rxBv4m4slnFYCEnTl8-95" value="" style="edgeStyle=orthogonalEdgeStyle;rounded=0;orthogonalLoop=1;jettySize=auto;html=1;entryX=1;entryY=0.5;entryDx=0;entryDy=0;exitX=0;exitY=0.5;exitDx=0;exitDy=0;" edge="1" parent="1" source="F5rxBv4m4slnFYCEnTl8-89" target="F5rxBv4m4slnFYCEnTl8-93">
          <mxGeometry relative="1" as="geometry">
            <mxPoint x="590" y="730" as="sourcePoint" />
            <mxPoint x="690" y="730" as="targetPoint" />
          </mxGeometry>
        </mxCell>
      </root>
    </mxGraphModel>
  </diagram>
  <diagram id="jSFeDqANmC_S3itnnqTR" name="ER図">
    <mxGraphModel dx="1038" dy="571" grid="1" gridSize="10" guides="1" tooltips="1" connect="1" arrows="1" fold="1" page="1" pageScale="1" pageWidth="827" pageHeight="1169" math="0" shadow="0">
      <root>
        <mxCell id="0" />
        <mxCell id="1" parent="0" />
        <mxCell id="6vpJz4bAulfEWJeP45C2-1" value="認証ユーザー情報" style="shape=table;startSize=30;container=1;collapsible=1;childLayout=tableLayout;fixedRows=1;rowLines=0;fontStyle=1;align=center;resizeLast=1;fillColor=#dae8fc;strokeColor=#6c8ebf;" vertex="1" parent="1">
          <mxGeometry x="80" y="80" width="180" height="70" as="geometry" />
        </mxCell>
        <mxCell id="6vpJz4bAulfEWJeP45C2-2" value="" style="shape=tableRow;horizontal=0;startSize=0;swimlaneHead=0;swimlaneBody=0;fillColor=none;collapsible=0;dropTarget=0;points=[[0,0.5],[1,0.5]];portConstraint=eastwest;top=0;left=0;right=0;bottom=1;" vertex="1" parent="6vpJz4bAulfEWJeP45C2-1">
          <mxGeometry y="30" width="180" height="30" as="geometry" />
        </mxCell>
        <mxCell id="6vpJz4bAulfEWJeP45C2-3" value="PK" style="shape=partialRectangle;connectable=0;fillColor=none;top=0;left=0;bottom=0;right=0;fontStyle=1;overflow=hidden;" vertex="1" parent="6vpJz4bAulfEWJeP45C2-2">
          <mxGeometry width="30" height="30" as="geometry">
            <mxRectangle width="30" height="30" as="alternateBounds" />
          </mxGeometry>
        </mxCell>
        <mxCell id="6vpJz4bAulfEWJeP45C2-4" value="電話番号" style="shape=partialRectangle;connectable=0;fillColor=none;top=0;left=0;bottom=0;right=0;align=left;spacingLeft=6;fontStyle=5;overflow=hidden;" vertex="1" parent="6vpJz4bAulfEWJeP45C2-2">
          <mxGeometry x="30" width="150" height="30" as="geometry">
            <mxRectangle width="150" height="30" as="alternateBounds" />
          </mxGeometry>
        </mxCell>
        <mxCell id="6vpJz4bAulfEWJeP45C2-27" value="ユーザー情報" style="shape=table;startSize=30;container=1;collapsible=1;childLayout=tableLayout;fixedRows=1;rowLines=0;fontStyle=1;align=center;resizeLast=1;fillColor=#ffe6cc;strokeColor=#d79b00;" vertex="1" parent="1">
          <mxGeometry x="380" y="80" width="180" height="170" as="geometry" />
        </mxCell>
        <mxCell id="6vpJz4bAulfEWJeP45C2-28" value="" style="shape=tableRow;horizontal=0;startSize=0;swimlaneHead=0;swimlaneBody=0;fillColor=none;collapsible=0;dropTarget=0;points=[[0,0.5],[1,0.5]];portConstraint=eastwest;top=0;left=0;right=0;bottom=0;" vertex="1" parent="6vpJz4bAulfEWJeP45C2-27">
          <mxGeometry y="30" width="180" height="30" as="geometry" />
        </mxCell>
        <mxCell id="6vpJz4bAulfEWJeP45C2-29" value="PK" style="shape=partialRectangle;connectable=0;fillColor=none;top=0;left=0;bottom=0;right=0;fontStyle=1;overflow=hidden;" vertex="1" parent="6vpJz4bAulfEWJeP45C2-28">
          <mxGeometry width="60" height="30" as="geometry">
            <mxRectangle width="60" height="30" as="alternateBounds" />
          </mxGeometry>
        </mxCell>
        <mxCell id="6vpJz4bAulfEWJeP45C2-30" value="電話番号" style="shape=partialRectangle;connectable=0;fillColor=none;top=0;left=0;bottom=0;right=0;align=left;spacingLeft=6;fontStyle=5;overflow=hidden;" vertex="1" parent="6vpJz4bAulfEWJeP45C2-28">
          <mxGeometry x="60" width="120" height="30" as="geometry">
            <mxRectangle width="120" height="30" as="alternateBounds" />
          </mxGeometry>
        </mxCell>
        <mxCell id="6vpJz4bAulfEWJeP45C2-31" value="" style="shape=tableRow;horizontal=0;startSize=0;swimlaneHead=0;swimlaneBody=0;fillColor=none;collapsible=0;dropTarget=0;points=[[0,0.5],[1,0.5]];portConstraint=eastwest;top=0;left=0;right=0;bottom=1;" vertex="1" parent="6vpJz4bAulfEWJeP45C2-27">
          <mxGeometry y="60" width="180" height="30" as="geometry" />
        </mxCell>
        <mxCell id="6vpJz4bAulfEWJeP45C2-32" value="PK" style="shape=partialRectangle;connectable=0;fillColor=none;top=0;left=0;bottom=0;right=0;fontStyle=1;overflow=hidden;" vertex="1" parent="6vpJz4bAulfEWJeP45C2-31">
          <mxGeometry width="60" height="30" as="geometry">
            <mxRectangle width="60" height="30" as="alternateBounds" />
          </mxGeometry>
        </mxCell>
        <mxCell id="6vpJz4bAulfEWJeP45C2-33" value="ユーザーID" style="shape=partialRectangle;connectable=0;fillColor=none;top=0;left=0;bottom=0;right=0;align=left;spacingLeft=6;fontStyle=5;overflow=hidden;" vertex="1" parent="6vpJz4bAulfEWJeP45C2-31">
          <mxGeometry x="60" width="120" height="30" as="geometry">
            <mxRectangle width="120" height="30" as="alternateBounds" />
          </mxGeometry>
        </mxCell>
        <mxCell id="6vpJz4bAulfEWJeP45C2-34" value="" style="shape=tableRow;horizontal=0;startSize=0;swimlaneHead=0;swimlaneBody=0;fillColor=none;collapsible=0;dropTarget=0;points=[[0,0.5],[1,0.5]];portConstraint=eastwest;top=0;left=0;right=0;bottom=0;" vertex="1" parent="6vpJz4bAulfEWJeP45C2-27">
          <mxGeometry y="90" width="180" height="40" as="geometry" />
        </mxCell>
        <mxCell id="6vpJz4bAulfEWJeP45C2-35" value="" style="shape=partialRectangle;connectable=0;fillColor=none;top=0;left=0;bottom=0;right=0;editable=1;overflow=hidden;" vertex="1" parent="6vpJz4bAulfEWJeP45C2-34">
          <mxGeometry width="60" height="40" as="geometry">
            <mxRectangle width="60" height="40" as="alternateBounds" />
          </mxGeometry>
        </mxCell>
        <mxCell id="6vpJz4bAulfEWJeP45C2-36" value="アカウント" style="shape=partialRectangle;connectable=0;fillColor=none;top=0;left=0;bottom=0;right=0;align=left;spacingLeft=6;overflow=hidden;" vertex="1" parent="6vpJz4bAulfEWJeP45C2-34">
          <mxGeometry x="60" width="120" height="40" as="geometry">
            <mxRectangle width="120" height="40" as="alternateBounds" />
          </mxGeometry>
        </mxCell>
        <mxCell id="6vpJz4bAulfEWJeP45C2-37" value="" style="shape=tableRow;horizontal=0;startSize=0;swimlaneHead=0;swimlaneBody=0;fillColor=none;collapsible=0;dropTarget=0;points=[[0,0.5],[1,0.5]];portConstraint=eastwest;top=0;left=0;right=0;bottom=0;" vertex="1" parent="6vpJz4bAulfEWJeP45C2-27">
          <mxGeometry y="130" width="180" height="30" as="geometry" />
        </mxCell>
        <mxCell id="6vpJz4bAulfEWJeP45C2-38" value="" style="shape=partialRectangle;connectable=0;fillColor=none;top=0;left=0;bottom=0;right=0;editable=1;overflow=hidden;" vertex="1" parent="6vpJz4bAulfEWJeP45C2-37">
          <mxGeometry width="60" height="30" as="geometry">
            <mxRectangle width="60" height="30" as="alternateBounds" />
          </mxGeometry>
        </mxCell>
        <mxCell id="6vpJz4bAulfEWJeP45C2-39" value="その他" style="shape=partialRectangle;connectable=0;fillColor=none;top=0;left=0;bottom=0;right=0;align=left;spacingLeft=6;overflow=hidden;" vertex="1" parent="6vpJz4bAulfEWJeP45C2-37">
          <mxGeometry x="60" width="120" height="30" as="geometry">
            <mxRectangle width="120" height="30" as="alternateBounds" />
          </mxGeometry>
        </mxCell>
        <mxCell id="6vpJz4bAulfEWJeP45C2-42" value="" style="edgeStyle=entityRelationEdgeStyle;fontSize=12;html=1;endArrow=ERzeroToOne;endFill=1;rounded=0;entryX=1;entryY=0.5;entryDx=0;entryDy=0;exitX=0;exitY=0.5;exitDx=0;exitDy=0;" edge="1" parent="1" source="6vpJz4bAulfEWJeP45C2-34" target="6vpJz4bAulfEWJeP45C2-2">
          <mxGeometry width="100" height="100" relative="1" as="geometry">
            <mxPoint x="360" y="340" as="sourcePoint" />
            <mxPoint x="460" y="240" as="targetPoint" />
          </mxGeometry>
        </mxCell>
      </root>
    </mxGraphModel>
  </diagram>
</mxfile>
